<svg width="214" height="79" viewBox="0 0 214 79" fill="none" xmlns="http://www.w3.org/2000/svg">
<path d="M15.5938 26.1211H22.8984L19.3047 14.793L15.5938 26.1211ZM15.9648 8.21094H22.7617L32.957 37H26.4336L24.5781 31.082H13.9727L11.9805 37H5.69141L15.9648 8.21094ZM40.5156 30.2031C40.6328 31.1927 40.8867 31.8958 41.2773 32.3125C41.9674 33.0547 43.2435 33.4258 45.1055 33.4258C46.1992 33.4258 47.0651 33.263 47.7031 32.9375C48.3542 32.612 48.6797 32.1237 48.6797 31.4727C48.6797 30.8477 48.4193 30.3724 47.8984 30.0469C47.3776 29.7214 45.444 29.1615 42.0977 28.3672C39.6888 27.7682 37.9896 27.0195 37 26.1211C36.0104 25.2357 35.5156 23.9596 35.5156 22.293C35.5156 20.3268 36.2839 18.6406 37.8203 17.2344C39.3698 15.8151 41.5443 15.1055 44.3438 15.1055C47 15.1055 49.1615 15.6393 50.8281 16.707C52.5078 17.7617 53.4714 19.5911 53.7188 22.1953H48.1523C48.0742 21.4792 47.8724 20.9128 47.5469 20.4961C46.9349 19.7409 45.8932 19.3633 44.4219 19.3633C43.2109 19.3633 42.3451 19.5521 41.8242 19.9297C41.3164 20.3073 41.0625 20.75 41.0625 21.2578C41.0625 21.8958 41.3359 22.3581 41.8828 22.6445C42.4297 22.944 44.3633 23.4583 47.6836 24.1875C49.8971 24.7083 51.5573 25.4961 52.6641 26.5508C53.7578 27.6185 54.3047 28.9531 54.3047 30.5547C54.3047 32.6641 53.5169 34.3893 51.9414 35.7305C50.3789 37.0586 47.957 37.7227 44.6758 37.7227C41.3294 37.7227 38.8555 37.0195 37.2539 35.6133C35.6654 34.194 34.8711 32.3906 34.8711 30.2031H40.5156ZM56.2578 19.8711V15.9062H59.2266V9.96875H64.7344V15.9062H68.1914V19.8711H64.7344V31.1211C64.7344 31.9935 64.8451 32.5404 65.0664 32.7617C65.2878 32.9701 65.9648 33.0742 67.0977 33.0742C67.2669 33.0742 67.4427 33.0742 67.625 33.0742C67.8203 33.0612 68.0091 33.0482 68.1914 33.0352V37.1953L65.5547 37.293C62.9245 37.3841 61.1276 36.9284 60.1641 35.9258C59.5391 35.2878 59.2266 34.3047 59.2266 32.9766V19.8711H56.2578ZM83.3281 15.2031C83.4323 15.2031 83.5169 15.2096 83.582 15.2227C83.6602 15.2227 83.8229 15.2292 84.0703 15.2422V20.9453C83.7188 20.9062 83.4062 20.8802 83.1328 20.8672C82.8594 20.8542 82.638 20.8477 82.4688 20.8477C80.2292 20.8477 78.7253 21.5768 77.957 23.0352C77.5273 23.8555 77.3125 25.1185 77.3125 26.8242V37H71.707V15.7109H77.0195V19.4219C77.8789 18.0026 78.6276 17.0326 79.2656 16.5117C80.3073 15.6393 81.6615 15.2031 83.3281 15.2031ZM96.9023 33.0742C98.5299 33.0742 99.7799 32.4948 100.652 31.3359C101.525 30.1771 101.961 28.5299 101.961 26.3945C101.961 24.2591 101.525 22.6185 100.652 21.4727C99.7799 20.3138 98.5299 19.7344 96.9023 19.7344C95.2747 19.7344 94.0182 20.3138 93.1328 21.4727C92.2604 22.6185 91.8242 24.2591 91.8242 26.3945C91.8242 28.5299 92.2604 30.1771 93.1328 31.3359C94.0182 32.4948 95.2747 33.0742 96.9023 33.0742ZM107.801 26.3945C107.801 29.5195 106.902 32.1953 105.105 34.4219C103.309 36.6354 100.581 37.7422 96.9219 37.7422C93.263 37.7422 90.5352 36.6354 88.7383 34.4219C86.9414 32.1953 86.043 29.5195 86.043 26.3945C86.043 23.3216 86.9414 20.6589 88.7383 18.4062C90.5352 16.1536 93.263 15.0273 96.9219 15.0273C100.581 15.0273 103.309 16.1536 105.105 18.4062C106.902 20.6589 107.801 23.3216 107.801 26.3945ZM116.141 30.2031C116.258 31.1927 116.512 31.8958 116.902 32.3125C117.592 33.0547 118.868 33.4258 120.73 33.4258C121.824 33.4258 122.69 33.263 123.328 32.9375C123.979 32.612 124.305 32.1237 124.305 31.4727C124.305 30.8477 124.044 30.3724 123.523 30.0469C123.003 29.7214 121.069 29.1615 117.723 28.3672C115.314 27.7682 113.615 27.0195 112.625 26.1211C111.635 25.2357 111.141 23.9596 111.141 22.293C111.141 20.3268 111.909 18.6406 113.445 17.2344C114.995 15.8151 117.169 15.1055 119.969 15.1055C122.625 15.1055 124.786 15.6393 126.453 16.707C128.133 17.7617 129.096 19.5911 129.344 22.1953H123.777C123.699 21.4792 123.497 20.9128 123.172 20.4961C122.56 19.7409 121.518 19.3633 120.047 19.3633C118.836 19.3633 117.97 19.5521 117.449 19.9297C116.941 20.3073 116.688 20.75 116.688 21.2578C116.688 21.8958 116.961 22.3581 117.508 22.6445C118.055 22.944 119.988 23.4583 123.309 24.1875C125.522 24.7083 127.182 25.4961 128.289 26.5508C129.383 27.6185 129.93 28.9531 129.93 30.5547C129.93 32.6641 129.142 34.3893 127.566 35.7305C126.004 37.0586 123.582 37.7227 120.301 37.7227C116.954 37.7227 114.48 37.0195 112.879 35.6133C111.29 34.194 110.496 32.3906 110.496 30.2031H116.141ZM144.109 15.7109H149.754L152.996 31.043L156.316 15.7109H162.117L155.945 37H150.223L146.883 21.4922L143.504 37H137.723L131.746 15.7109H137.723L141.043 30.9844L144.109 15.7109ZM176.941 26.6484C176.59 26.8698 176.232 27.0521 175.867 27.1953C175.516 27.3255 175.027 27.4492 174.402 27.5664L173.152 27.8008C171.98 28.0091 171.141 28.263 170.633 28.5625C169.773 29.0703 169.344 29.8581 169.344 30.9258C169.344 31.8763 169.604 32.5664 170.125 32.9961C170.659 33.4128 171.303 33.6211 172.059 33.6211C173.257 33.6211 174.357 33.2695 175.359 32.5664C176.375 31.8633 176.902 30.5807 176.941 28.7188V26.6484ZM173.562 24.0508C174.591 23.9206 175.327 23.7578 175.77 23.5625C176.564 23.224 176.961 22.6966 176.961 21.9805C176.961 21.1081 176.655 20.5091 176.043 20.1836C175.444 19.8451 174.559 19.6758 173.387 19.6758C172.072 19.6758 171.141 20.0013 170.594 20.6523C170.203 21.1341 169.943 21.7852 169.812 22.6055H164.441C164.559 20.7435 165.079 19.2135 166.004 18.0156C167.475 16.1406 170.001 15.2031 173.582 15.2031C175.913 15.2031 177.983 15.6654 179.793 16.5898C181.603 17.5143 182.508 19.2591 182.508 21.8242V31.5898C182.508 32.2669 182.521 33.0872 182.547 34.0508C182.586 34.7799 182.697 35.2747 182.879 35.5352C183.061 35.7956 183.335 36.0104 183.699 36.1797V37H177.645C177.475 36.5703 177.358 36.1667 177.293 35.7891C177.228 35.4115 177.176 34.9818 177.137 34.5C176.368 35.3333 175.483 36.043 174.48 36.6289C173.283 37.319 171.928 37.6641 170.418 37.6641C168.491 37.6641 166.896 37.1172 165.633 36.0234C164.383 34.9167 163.758 33.3542 163.758 31.3359C163.758 28.7188 164.767 26.8242 166.785 25.6523C167.892 25.0143 169.52 24.5586 171.668 24.2852L173.562 24.0508ZM202.137 26.3555C202.137 24.7148 201.759 23.263 201.004 22C200.262 20.737 199.051 20.1055 197.371 20.1055C195.353 20.1055 193.966 21.0625 193.211 22.9766C192.82 23.9922 192.625 25.2812 192.625 26.8438C192.625 29.3177 193.283 31.056 194.598 32.0586C195.379 32.6445 196.303 32.9375 197.371 32.9375C198.921 32.9375 200.099 32.3385 200.906 31.1406C201.727 29.9427 202.137 28.3477 202.137 26.3555ZM198.973 15.2422C201.46 15.2422 203.562 16.1602 205.281 17.9961C207.013 19.832 207.879 22.5273 207.879 26.082C207.879 29.832 207.033 32.6901 205.34 34.6562C203.66 36.6224 201.492 37.6055 198.836 37.6055C197.143 37.6055 195.737 37.1823 194.617 36.3359C194.005 35.8672 193.406 35.1836 192.82 34.2852V45.3789H187.312V15.7109H192.645V18.8555C193.243 17.931 193.882 17.2018 194.559 16.668C195.796 15.7174 197.267 15.2422 198.973 15.2422Z" fill="black"/>
<path d="M73 66H141" stroke="black" stroke-width="4"/>
<path d="M85 77H129" stroke="black" stroke-width="4"/>
</svg>

